<svg xmlns="http://www.w3.org/2000/svg" xmlns:xlink="http://www.w3.org/1999/xlink" width="2000" height="2008.276" id="svg2"><defs id="defs4"><linearGradient id="linearGradient3820"><stop id="stop3822" offset="0" stop-color="#070135"/><stop id="stop3824" offset="1" stop-color="#612d50"/></linearGradient><linearGradient x1="314.624" y1="547.206" x2="427.377" y2="432.484" id="linearGradient3834" xlink:href="#linearGradient3820" gradientUnits="userSpaceOnUse" gradientTransform="translate(-52)"/></defs><g id="layer1" transform="translate(-3987.602 -6644.883) scale(15.62304)"><rect width="128.016" height="128.546" ry="20.68" x="255.239" y="425.326" id="rect3050" fill="url(#linearGradient3834)"/><g transform="scale(1.0052 .99483)" id="text3836" style="text-align:center;line-height:100%;-inkscape-font-specification:Sans" font-size="109.797" font-weight="400" letter-spacing="0" word-spacing="0" text-anchor="middle" fill="#fff" font-family="Sans"><path d="M318.556 483.165c3.253 0 5.719-.715 7.399-2.144 1.68-1.43 2.52-3.539 2.52-6.326 0-2.752-.84-4.843-2.52-6.273-1.68-1.465-4.146-2.198-7.399-2.198h-11.419v16.941h11.42m.696 35.009c4.146 0 7.256-.876 9.329-2.627 2.108-1.752 3.163-4.396 3.163-7.935 0-3.467-1.037-6.058-3.11-7.774-2.073-1.75-5.2-2.626-9.382-2.627h-12.116v20.963h12.116m19.193-28.79c4.432 1.287 7.863 3.664 10.294 7.13 2.43 3.467 3.645 7.72 3.645 12.76 0 7.72-2.609 13.474-7.827 17.263-5.218 3.789-13.153 5.683-23.804 5.683h-34.257v-80.042h30.987c11.116 0 19.157 1.68 24.125 5.04 5.004 3.359 7.506 8.738 7.506 16.136 0 3.896-.911 7.22-2.734 9.972-1.823 2.716-4.468 4.736-7.935 6.058" id="path3841" style="line-height:100%;-inkscape-font-specification:Sans Bold" font-weight="700"/></g></g></svg>