<svg width="298" height="420" viewBox="0 0 298 420" xmlns="http://www.w3.org/2000/svg"><title>Slice 1</title><g id="Page 1" fill="none" fill-rule="evenodd"><g id="Layer_1"><path d="M233.164 15.681h-24.688L234.15 43.54v13.261h-52.882V41.275h25.669l-25.669-27.86V.135h51.896v15.546zm-62.378 0h-24.688l25.673 27.859v13.261h-52.882V41.275h25.672l-25.672-27.86V.135h51.897v15.546zm-61.768.631h-26.64v24.313h26.64v16.176H63.444V.135h45.574v16.177zm0 0" id="Shape" fill="#131313"/><path d="M27.142 386.29L.071 82.67h297.45l-27.096 303.571-121.811 33.77L27.142 386.29zm0 0" id="Shape" fill="#1572B6"/><path d="M148.798 394.199l98.427-27.288 23.157-259.415H148.798v286.703zm0 0" id="Shape" fill="#33A9DC"/><g id="Group" transform="translate(55 142)"><path d="M93.797 75.496h49.275l3.403-38.132H93.797V.125h93.375l-.893 9.991-9.152 102.616h-83.33V75.496zm0 0" id="Shape" fill="#FFF"/><path d="M94.02 172.204l-.163.046-41.472-11.199-2.652-29.698H12.354l5.216 58.467 76.278 21.176.172-.048v-38.744zm0 0" id="Shape" fill="#EBEBEB"/><path d="M139.907 111.156l-4.484 49.87-41.532 11.21v38.742l76.339-21.158.56-6.29 6.478-72.374h-37.361zm0 0" id="Shape" fill="#FFF"/><path d="M93.926.125v37.239H3.979l-.747-8.37-1.697-18.878L.645.125h93.281zM93.797 75.5v37.238H52.85l-.746-8.369-1.698-18.878-.89-9.991h44.281zm0 0" id="Shape" fill="#EBEBEB"/></g></g></g></svg>