<svg xmlns="http://www.w3.org/2000/svg" xmlns:xlink="http://www.w3.org/1999/xlink" width="122.498" height="157.564" id="svg3120"><defs id="defs3122"><linearGradient id="linearGradient3949"><stop offset="0" id="stop3951" stop-color="#fff"/><stop offset="1" id="stop3953" stop-color="#c0815e"/></linearGradient><linearGradient id="linearGradient3938"><stop offset="0" id="stop3940" stop-color="#fff"/><stop offset="1" id="stop3942" stop-color="#a94436"/></linearGradient><radialGradient xlink:href="#linearGradient3938" id="radialGradient3944" cx="346.786" cy="514.245" fx="346.786" fy="514.245" r="48.529" gradientTransform="matrix(1 0 0 1.5817 0 -299.136)" gradientUnits="userSpaceOnUse"/><linearGradient xlink:href="#linearGradient3949" id="linearGradient3955" x1="366.086" y1="502.287" x2="394.531" y2="487.389" gradientUnits="userSpaceOnUse"/></defs><g id="layer1" transform="translate(-273.273 -435.955)"><path d="M275.233 591.68s.238-37.323.238-75.264c0-73.488-6.192-78.961 26.781-78.961h91.779v106c0 34.894 6.523 48.563-30.148 48.563s-88.65-.339-88.65-.339z" id="path3907" fill="#a62c39"/></g><g id="layer4" transform="translate(-273.273 -435.955)"><path d="M350.903 451.318s5.881 1.176 10.978 9.802c5.097 8.625 32.15 75.67 32.15 75.67v-54.498l-25.093-40.776 7.058 8.626 13.33-10.978-17.251-1.176z" id="path3947" fill="url(#linearGradient3955)"/></g><g id="layer3" transform="translate(-273.273 -435.955)"><path d="M298.758 438.38s38.815 25.876 57.634 30.973a5399.777 5399.777 0 0 1 38.423 10.586l-44.696 109.78 19.211.784 25.093-61.947-.784-90.568z" id="path3934" opacity=".668" fill="url(#radialGradient3944)"/><path d="M334.828 554.04l40.378 38.835-75.272-1.588s-2.353-23.916-1.568-36.462c.784-12.547 4.704-12.547 4.704-12.547z" id="path3960" fill="#fff" fill-opacity=".44"/></g><g id="layer5" transform="translate(-273.273 -435.955)"><path d="M372.075 592.071l-36.463-37.638-33.326-12.547-25.876-57.634 27.445-45.872-18.428-.784-7.449 7.057-2.745 5.489-1.96 142.714z" id="path3958" fill-opacity=".362"/><path d="M394.423 532.085s-36.855 11.762-58.81 22.74c-21.957 10.978-33.719 37.638-33.719 37.638s47.049-2.352 64.692-1.568c17.643.784 25.877.784 27.445-23.916 1.568-24.7.392-34.894.392-34.894z" id="path3962" opacity=".5" fill="#83222d"/></g><g id="layer7" transform="translate(-273.273 -435.955)" fill="#fff"><path d="M286.594 555.5v23.156h5.906v-6.031l5.375 5.375h9.063l-7.188-7.188s5.17-.083 5.563-7.562c0-6.861-5.178-7.75-11.157-7.75h-7.562zm6.187 6.281h5.094v4.125h-5.094v-4.125z" id="path3993"/><path d="M318.344 555.594c-3.234-.018-7.719.281-7.719 6.375v16.093h6.063v-3.937h5.875v3.844h6.093v-16.875c0-5.293-5.88-5.5-9.031-5.5-.394 0-.82.003-1.281 0zm-1.563 5.812h5.688v6.344h-5.688v-6.344z" id="path3997"/><path id="rect4001" d="M334.73 555.609h6.273v22.152h-6.273z"/><path d="M347.57 555.903v22.152h15.095v-5.881h-8.92v-16.37z" id="path4003"/><path d="M382.66 555.707v5.979h-10.095v2.156h4.313c2.254 0 6.959-.098 6.959 6.96 0 7.057-3.235 7.449-9.802 7.449h-7.94v-5.391h9.116c2.745 0 2.896-.893 2.896-1.672 0-.778-1.403-1.14-4.257-1.14-2.853 0-8.146-1.403-8.146-6.892 0-5.489 2.744-7.547 8.233-7.547 5.49 0 8.724.098 8.724.098z" id="path4005"/></g><g id="layer6" transform="translate(-273.273 -435.955)" fill="#fff"><path d="M292.093 548.944h52.145s-11.566-26.269-8.626-50.381c2.94-24.113 21.956-35.09 32.738-36.267 10.782-1.176 16.663 5.49 16.663 5.49l2.353-3.53s-15.487-15.682-35.09-13.918c-19.604 1.764-33.13 14.703-41.56 30.385-8.43 15.683-13.33 26.661-16.663 43.128s-1.96 25.093-1.96 25.093z" id="path3966"/><path d="M281.703 522.675l10.193.784-1.764 10.194-9.606-1.176z" id="path3968"/><path d="M297.778 501.111l2.744-7.645-9.018-3.529-2.94 8.234z" id="path3970"/><path d="M310.52 474.842l5.293-6.273-6.861-4.509-5.49 6.078z" id="path3972"/><path d="M324.438 450.534l4.705 5.685 6.47-3.725-4.706-5.293z" id="path3974"/><path d="M347.374 444.065l1.177 5.685 8.037-.196-.784-5.097z" id="path3976"/><path d="M374.623 450.142l-.196 3.529 5.49 2.94 1.176-1.764z" id="path3978"/><path d="M373.447 465.237v2.94l5.293.588v-2.352z" id="path3980"/><path d="M356.588 467.785l2.549 4.705 3.724-2.94-.784-3.137z" id="path3982"/><path d="M348.55 473.862l3.921 5.881-2.352 4.117-5.685-6.273z" id="path3984"/><path d="M340.71 490.133l-2.55 5.097 6.666 5.685 1.568-6.47z" id="path3986"/><path d="M337.965 507.972l-.392 6.862 8.233 3.528-.392-6.469z" id="path3988"/><path d="M340.317 532.28l1.96 7.058 10.39.588-3.724-7.645z" id="path3990"/></g><g id="g3911" transform="translate(-273.273 -435.955)"><path id="path3913" d="M275.233 591.68s.238-37.323.238-75.264c0-73.488-6.192-78.961 26.781-78.961h91.779v106c0 34.894 4.954 48.563-30.148 48.563-35.103 0-88.65-.339-88.65-.339z" fill="none" stroke="#5e000e" stroke-width="3"/></g></svg>